<svg xmlns="http://www.w3.org/2000/svg" version="1.1" xmlns:xlink="http://www.w3.org/1999/xlink" xmlns:svgjs="http://svgjs.dev/svgjs" width="1500" height="1500" viewBox="0 0 1500 1500"><rect width="1500" height="1500" fill="#000000"></rect><g transform="matrix(0.6666666666666666,0,0,0.6666666666666666,249.39393939393938,550.2964490439521)"><svg viewBox="0 0 396 158" data-background-color="#191552" preserveAspectRatio="xMidYMid meet" height="598" width="1500" xmlns="http://www.w3.org/2000/svg" xmlns:xlink="http://www.w3.org/1999/xlink"><g id="tight-bounds" transform="matrix(1,0,0,1,0.2400000000000091,0.146725044453774)"><svg viewBox="0 0 395.52 157.70654991109245" height="157.70654991109245" width="395.52"><g><svg viewBox="0 0 395.52 157.70654991109245" height="157.70654991109245" width="395.52"><g><svg viewBox="0 0 395.52 157.70654991109245" height="157.70654991109245" width="395.52"><g transform="matrix(1,0,0,1,0,81.16218793733967)"><svg viewBox="0 0 395.52 76.54436197375277" height="76.54436197375277" width="395.52"><g id="textblocktransform"><svg viewBox="0 0 395.52 76.54436197375277" height="76.54436197375277" width="395.52" id="textblock"><g><svg viewBox="0 0 395.52 76.54436197375277" height="76.54436197375277" width="395.52"><g transform="matrix(1,0,0,1,0,0)"><svg width="395.52" viewBox="1.494679999999999 -20.558410000000002 246.674 47.738420000000005" height="76.54436197375277" data-palette-color="url(#1bdfb15d-7fb2-48c1-8ee3-836ea16cbee1)"></svg></g></svg></g></svg></g></svg></g><g transform="matrix(1,0,0,1,160.2339903696868,0)"><svg viewBox="0 0 75.05201926062638 76.54436197375277" height="76.54436197375277" width="75.05201926062638"><g><svg xmlns="http://www.w3.org/2000/svg" xmlns:xlink="http://www.w3.org/1999/xlink" version="1.1" x="0" y="0" viewBox="3.000385484561234 1.7891987156131817 121.98719432093651 124.41280128438682" style="enable-background:new 0 0 128 128;" xml:space="preserve" height="76.54436197375277" width="75.05201926062638" class="icon-icon-0" data-fill-palette-color="accent" id="icon-0"></svg></g></svg></g><g></g></svg></g></svg></g><defs></defs><mask id="b0726f16-277f-4cee-bd9c-53d70ae578c1"><g id="SvgjsG1705"><svg viewBox="0 0 395.52 157.70654991109245" height="157.70654991109245" width="395.52"><g><svg viewBox="0 0 395.52 157.70654991109245" height="157.70654991109245" width="395.52"><g><svg viewBox="0 0 395.52 157.70654991109245" height="157.70654991109245" width="395.52"><g transform="matrix(1,0,0,1,0,81.16218793733967)"><svg viewBox="0 0 395.52 76.54436197375277" height="76.54436197375277" width="395.52"><g id="SvgjsG1704"><svg viewBox="0 0 395.52 76.54436197375277" height="76.54436197375277" width="395.52" id="SvgjsSvg1703"><g><svg viewBox="0 0 395.52 76.54436197375277" height="76.54436197375277" width="395.52"><g transform="matrix(1,0,0,1,0,0)"><svg width="395.52" viewBox="1.494679999999999 -20.558410000000002 246.674 47.738420000000005" height="76.54436197375277" data-palette-color="url(#1bdfb15d-7fb2-48c1-8ee3-836ea16cbee1)"><path d="M13.209 15.684l-11.714-2.412 6.964-33.83 11.714 2.411c3.624 0.746 6.495 2.123 8.614 4.132 2.119 2.008 3.518 4.417 4.2 7.225 0.682 2.802 0.703 5.76 0.061 8.875v0c-0.706 3.428-1.987 6.278-3.843 8.55-1.861 2.265-4.157 3.844-6.886 4.739-2.736 0.893-5.773 0.997-9.11 0.31zM28.709 1.191v0c0.523-2.54 0.52-4.892-0.007-7.056-0.534-2.166-1.575-3.986-3.123-5.462-1.554-1.477-3.618-2.48-6.19-3.01v0l-7.434-1.53-5.396 26.21 7.434 1.531c2.605 0.536 4.919 0.407 6.941-0.389 2.014-0.79 3.686-2.083 5.015-3.878 1.331-1.802 2.251-3.94 2.76-6.416zM41.305 16.774l18.881 2.749-0.561 3.849-23.205-3.379 4.977-34.179 22.77 3.315-0.561 3.85-18.445-2.686-1.613 11.073 16.041 2.336-0.526 3.612-16.041-2.336zM70.635 24.325l-4.353-0.393 3.103-34.4 14.342 1.294c1.514 0.137 2.873 0.577 4.077 1.321 1.205 0.738 2.228 1.677 3.07 2.817 0.842 1.134 1.462 2.378 1.862 3.733 0.4 1.355 0.539 2.709 0.417 4.064v0c-0.169 1.872-0.752 3.62-1.748 5.244-0.989 1.618-2.292 2.882-3.907 3.794-1.615 0.912-3.439 1.276-5.47 1.093v0l-10.279-0.927zM73.388-6.201l-1.289 14.292 10.039 0.905c1.195 0.108 2.263-0.121 3.204-0.685 0.948-0.564 1.724-1.374 2.328-2.43 0.597-1.051 0.954-2.223 1.071-3.518v0c0.122-1.355-0.06-2.599-0.547-3.735-0.48-1.134-1.16-2.053-2.041-2.754-0.881-0.695-1.889-1.094-3.025-1.197v0zM120.8 27.18l-23.624-0.854 1.247-34.517 4.367 0.158-1.107 30.63 19.258 0.696zM139.246 26.927v0c-2.433 0.052-4.649-0.387-6.65-1.317-2-0.93-3.738-2.213-5.214-3.849-1.482-1.642-2.633-3.501-3.451-5.577-0.825-2.069-1.261-4.207-1.308-6.413v0c-0.05-2.306 0.316-4.511 1.098-6.615 0.781-2.111 1.891-4.002 3.329-5.673 1.444-1.671 3.143-3.005 5.095-4.001 1.959-1.002 4.105-1.529 6.437-1.579v0c2.433-0.052 4.65 0.403 6.651 1.368 2.001 0.964 3.733 2.274 5.196 3.929 1.463 1.656 2.606 3.511 3.431 5.567 0.825 2.063 1.26 4.181 1.307 6.354v0c0.049 2.299-0.31 4.504-1.078 6.614-0.768 2.11-1.871 3.998-3.309 5.663-1.438 1.671-3.136 2.998-5.096 3.98-1.959 0.982-4.105 1.499-6.438 1.549zM127.042 9.676v0c0.038 1.753 0.361 3.44 0.969 5.06 0.602 1.627 1.433 3.063 2.494 4.307 1.067 1.237 2.338 2.214 3.813 2.929 1.476 0.715 3.107 1.053 4.893 1.015v0c1.846-0.04 3.491-0.465 4.934-1.276 1.443-0.805 2.66-1.868 3.652-3.19 0.992-1.322 1.74-2.798 2.246-4.429 0.498-1.631 0.73-3.273 0.694-4.926v0c-0.038-1.753-0.357-3.433-0.959-5.041-0.601-1.607-1.446-3.043-2.533-4.306-1.081-1.257-2.349-2.233-3.804-2.929-1.462-0.702-3.066-1.034-4.813-0.997v0c-1.853 0.04-3.501 0.459-4.944 1.257-1.443 0.791-2.661 1.848-3.652 3.169-0.992 1.315-1.747 2.782-2.266 4.4-0.519 1.618-0.76 3.27-0.724 4.957zM153.761-8.22l4.804-0.392 11.892 17.087 9.058-18.8 4.744-0.388-11.298 22.937 1.026 12.558-4.365 0.357-1.035-12.658zM196.269 18.571l18.912-2.527 0.515 3.856-23.243 3.106-4.576-34.236 22.807-3.048 0.516 3.856-18.476 2.469 1.482 11.092 16.067-2.148 0.484 3.618-16.067 2.147zM226.56 17.786l-4.292 0.821-6.485-33.926 14.527-2.777c1.493-0.285 2.921-0.236 4.284 0.148 1.362 0.378 2.604 0.999 3.726 1.864 1.121 0.858 2.06 1.883 2.818 3.076 0.757 1.192 1.264 2.456 1.519 3.792v0c0.298 1.558 0.287 3.098-0.034 4.618-0.321 1.514-0.922 2.864-1.801 4.051-0.878 1.193-1.998 2.119-3.358 2.779v0l10.705 11.424-4.882 0.933-10.07-10.71-8.987 1.718zM220.806-12.319l2.694 14.095 10.274-1.964c1.179-0.225 2.144-0.749 2.896-1.572 0.754-0.816 1.272-1.814 1.556-2.995 0.291-1.176 0.318-2.385 0.08-3.629v0c-0.244-1.277-0.756-2.394-1.537-3.351-0.772-0.952-1.682-1.66-2.727-2.126-1.045-0.459-2.127-0.581-3.247-0.367v0z" opacity="1" transform="matrix(1,0,0,1,0,0)" fill="white" class="wordmark-text-0" id="SvgjsPath1702"></path></svg></g></svg></g></svg></g></svg></g><g transform="matrix(1,0,0,1,160.2339903696868,0)"><svg viewBox="0 0 75.05201926062638 76.54436197375277" height="76.54436197375277" width="75.05201926062638"><g><svg xmlns="http://www.w3.org/2000/svg" xmlns:xlink="http://www.w3.org/1999/xlink" version="1.1" x="0" y="0" viewBox="3.000385484561234 1.7891987156131817 121.98719432093651 124.41280128438682" style="enable-background:new 0 0 128 128;" xml:space="preserve" height="76.54436197375277" width="75.05201926062638" class="icon-icon-0" data-fill-palette-color="accent" id="SvgjsSvg1701"><g fill="black"><g fill="black"><g fill="black"><path d="M48.869 91.497c-0.521 0-1.029-0.204-1.409-0.581L35.452 78.985c-0.525-0.522-0.72-1.291-0.505-1.999 2.9-9.567 6.664-19.119 11.188-28.39 4.518-9.295 10.141-20.868 17.715-28.924 0.002-0.002 0.005-0.004 0.007-0.007C80.841 1.777 108.117 0.996 122.86 2.125c0.989 0.076 1.773 0.865 1.843 1.854 1.03 14.741 0.117 41.969-17.568 58.708-7.957 7.554-19.698 13.133-29.132 17.616-9.319 4.489-18.932 8.228-28.561 11.109C49.254 91.469 49.061 91.497 48.869 91.497zM39.128 76.998l10.304 10.238c9.048-2.772 18.073-6.316 26.845-10.542 9.665-4.593 20.609-9.793 28.106-16.911 15.836-14.988 17.221-39.44 16.438-53.791C106.463 5.121 81.974 6.397 66.76 22.416c-7.155 7.613-12.63 18.879-17.028 27.932C45.48 59.059 41.916 68.019 39.128 76.998z" fill="black"></path><path d="M84.979 52.692c-2.854 0-5.709-1.08-7.882-3.239-2.109-2.096-3.271-4.884-3.271-7.85 0-2.966 1.162-5.754 3.271-7.85 4.348-4.319 11.419-4.318 15.765 0 2.11 2.096 3.272 4.884 3.272 7.85 0 2.965-1.162 5.753-3.271 7.849l0 0C90.689 51.613 87.834 52.692 84.979 52.692zM84.979 34.512c-1.834 0-3.667 0.693-5.063 2.08-1.348 1.339-2.09 3.119-2.09 5.012 0 1.893 0.742 3.672 2.091 5.012 2.792 2.774 7.335 2.773 10.125 0l0.001 0c1.348-1.339 2.091-3.12 2.091-5.012 0-1.893-0.743-3.673-2.091-5.012C88.647 35.205 86.813 34.512 84.979 34.512z" fill="black"></path><path d="M41.196 65.438c-0.053 0-0.106-0.002-0.161-0.006l-20.033-1.597c-0.606-0.048-1.157-0.37-1.498-0.874-0.341-0.504-0.434-1.136-0.252-1.716C19.921 59.106 26.676 40 57.653 27.522c0.785-0.318 1.688-0.104 2.248 0.535 0.561 0.637 0.657 1.559 0.242 2.299-0.254 0.453-0.659 0.772-1.119 0.925-23.995 9.699-32.433 23.21-35.009 28.78l17.338 1.382c1.101 0.088 1.922 1.052 1.835 2.153C43.104 64.644 42.229 65.438 41.196 65.438z" fill="black"></path><path d="M64.803 107.202c-0.396 0-0.787-0.117-1.122-0.344-0.502-0.34-0.822-0.89-0.871-1.495l-1.607-19.898c-0.089-1.101 0.731-2.066 1.832-2.155 1.106-0.095 2.065 0.732 2.154 1.833l1.392 17.22c5.583-2.542 19.177-10.893 28.95-34.682 0.123-0.447 0.401-0.854 0.818-1.132 0.069-0.046 0.16-0.098 0.234-0.135 0.743-0.372 1.643-0.245 2.254 0.322s0.807 1.452 0.492 2.223c-12.561 30.782-31.786 37.491-33.937 38.155C65.199 107.172 65.001 107.202 64.803 107.202z" fill="black"></path><path d="M119.474 40.137c-0.51 0-1.02-0.193-1.409-0.581L87.066 8.758c-0.784-0.779-0.788-2.045-0.01-2.829s2.046-0.787 2.828-0.009l30.998 30.798c0.784 0.779 0.788 2.045 0.01 2.829C120.502 39.94 119.987 40.137 119.474 40.137z" fill="black"></path></g><g fill="black"><path d="M6.204 125.006c-0.5 0-1.001-0.187-1.39-0.562-0.794-0.767-0.816-2.033-0.049-2.828l27.386-28.354c0.769-0.793 2.033-0.816 2.828-0.049 0.794 0.767 0.816 2.033 0.049 2.828L7.643 124.396C7.25 124.802 6.728 125.006 6.204 125.006z" fill="black"></path><path d="M25.475 126.202c-0.473 0-0.946-0.167-1.327-0.505-0.826-0.734-0.9-1.998-0.167-2.824l17.749-19.977c0.735-0.825 1.997-0.9 2.823-0.167 0.826 0.734 0.9 1.998 0.167 2.824l-17.749 19.977C26.575 125.975 26.026 126.202 25.475 126.202z" fill="black"></path><path d="M4.999 107.056c-0.473 0-0.946-0.167-1.327-0.505-0.826-0.734-0.9-1.998-0.167-2.824l17.75-19.977c0.734-0.825 1.997-0.9 2.823-0.167 0.826 0.734 0.9 1.998 0.167 2.824l-17.75 19.977C6.1 106.829 5.551 107.056 4.999 107.056z" fill="black"></path></g></g></g></svg></g></svg></g><g></g></svg></g></svg></g><defs><mask></mask></defs></svg><rect width="395.52" height="157.70654991109245" fill="black" stroke="none" visibility="hidden"></rect></g></mask><linearGradient x1="0" x2="1" y1="0.578" y2="0.595" id="1bdfb15d-7fb2-48c1-8ee3-836ea16cbee1"><stop stop-color="#6ee2f5" offset="0"></stop><stop stop-color="#6454f0" offset="1"></stop></linearGradient><rect width="395.52" height="157.70654991109245" fill="#ffffff" mask="url(#b0726f16-277f-4cee-bd9c-53d70ae578c1)" data-fill-palette-color="primary"></rect><mask id="8fcb5274-9a11-4a5f-b89b-a9ac54611d1b"><g id="SvgjsG1714"><svg viewBox="0 0 395.52 157.70654991109245" height="157.70654991109245" width="395.52"><g><svg viewBox="0 0 395.52 157.70654991109245" height="157.70654991109245" width="395.52"><g><svg viewBox="0 0 395.52 157.70654991109245" height="157.70654991109245" width="395.52"><g transform="matrix(1,0,0,1,0,81.16218793733967)"><svg viewBox="0 0 395.52 76.54436197375277" height="76.54436197375277" width="395.52"><g id="SvgjsG1713"><svg viewBox="0 0 395.52 76.54436197375277" height="76.54436197375277" width="395.52" id="SvgjsSvg1712"><g><svg viewBox="0 0 395.52 76.54436197375277" height="76.54436197375277" width="395.52"><g transform="matrix(1,0,0,1,0,0)"><svg width="395.52" viewBox="1.494679999999999 -20.558410000000002 246.674 47.738420000000005" height="76.54436197375277" data-palette-color="url(#1bdfb15d-7fb2-48c1-8ee3-836ea16cbee1)"></svg></g></svg></g></svg></g></svg></g><g transform="matrix(1,0,0,1,160.2339903696868,0)"><svg viewBox="0 0 75.05201926062638 76.54436197375277" height="76.54436197375277" width="75.05201926062638"><g><svg xmlns="http://www.w3.org/2000/svg" xmlns:xlink="http://www.w3.org/1999/xlink" version="1.1" x="0" y="0" viewBox="3.000385484561234 1.7891987156131817 121.98719432093651 124.41280128438682" style="enable-background:new 0 0 128 128;" xml:space="preserve" height="76.54436197375277" width="75.05201926062638" class="icon-icon-0" data-fill-palette-color="accent" id="SvgjsSvg1711"><g fill="white"><g fill="white"><g fill="white"><path d="M48.869 91.497c-0.521 0-1.029-0.204-1.409-0.581L35.452 78.985c-0.525-0.522-0.72-1.291-0.505-1.999 2.9-9.567 6.664-19.119 11.188-28.39 4.518-9.295 10.141-20.868 17.715-28.924 0.002-0.002 0.005-0.004 0.007-0.007C80.841 1.777 108.117 0.996 122.86 2.125c0.989 0.076 1.773 0.865 1.843 1.854 1.03 14.741 0.117 41.969-17.568 58.708-7.957 7.554-19.698 13.133-29.132 17.616-9.319 4.489-18.932 8.228-28.561 11.109C49.254 91.469 49.061 91.497 48.869 91.497zM39.128 76.998l10.304 10.238c9.048-2.772 18.073-6.316 26.845-10.542 9.665-4.593 20.609-9.793 28.106-16.911 15.836-14.988 17.221-39.44 16.438-53.791C106.463 5.121 81.974 6.397 66.76 22.416c-7.155 7.613-12.63 18.879-17.028 27.932C45.48 59.059 41.916 68.019 39.128 76.998z" fill="white"></path><path d="M84.979 52.692c-2.854 0-5.709-1.08-7.882-3.239-2.109-2.096-3.271-4.884-3.271-7.85 0-2.966 1.162-5.754 3.271-7.85 4.348-4.319 11.419-4.318 15.765 0 2.11 2.096 3.272 4.884 3.272 7.85 0 2.965-1.162 5.753-3.271 7.849l0 0C90.689 51.613 87.834 52.692 84.979 52.692zM84.979 34.512c-1.834 0-3.667 0.693-5.063 2.08-1.348 1.339-2.09 3.119-2.09 5.012 0 1.893 0.742 3.672 2.091 5.012 2.792 2.774 7.335 2.773 10.125 0l0.001 0c1.348-1.339 2.091-3.12 2.091-5.012 0-1.893-0.743-3.673-2.091-5.012C88.647 35.205 86.813 34.512 84.979 34.512z" fill="white"></path><path d="M41.196 65.438c-0.053 0-0.106-0.002-0.161-0.006l-20.033-1.597c-0.606-0.048-1.157-0.37-1.498-0.874-0.341-0.504-0.434-1.136-0.252-1.716C19.921 59.106 26.676 40 57.653 27.522c0.785-0.318 1.688-0.104 2.248 0.535 0.561 0.637 0.657 1.559 0.242 2.299-0.254 0.453-0.659 0.772-1.119 0.925-23.995 9.699-32.433 23.21-35.009 28.78l17.338 1.382c1.101 0.088 1.922 1.052 1.835 2.153C43.104 64.644 42.229 65.438 41.196 65.438z" fill="white"></path><path d="M64.803 107.202c-0.396 0-0.787-0.117-1.122-0.344-0.502-0.34-0.822-0.89-0.871-1.495l-1.607-19.898c-0.089-1.101 0.731-2.066 1.832-2.155 1.106-0.095 2.065 0.732 2.154 1.833l1.392 17.22c5.583-2.542 19.177-10.893 28.95-34.682 0.123-0.447 0.401-0.854 0.818-1.132 0.069-0.046 0.16-0.098 0.234-0.135 0.743-0.372 1.643-0.245 2.254 0.322s0.807 1.452 0.492 2.223c-12.561 30.782-31.786 37.491-33.937 38.155C65.199 107.172 65.001 107.202 64.803 107.202z" fill="white"></path><path d="M119.474 40.137c-0.51 0-1.02-0.193-1.409-0.581L87.066 8.758c-0.784-0.779-0.788-2.045-0.01-2.829s2.046-0.787 2.828-0.009l30.998 30.798c0.784 0.779 0.788 2.045 0.01 2.829C120.502 39.94 119.987 40.137 119.474 40.137z" fill="white"></path></g><g fill="white"><path d="M6.204 125.006c-0.5 0-1.001-0.187-1.39-0.562-0.794-0.767-0.816-2.033-0.049-2.828l27.386-28.354c0.769-0.793 2.033-0.816 2.828-0.049 0.794 0.767 0.816 2.033 0.049 2.828L7.643 124.396C7.25 124.802 6.728 125.006 6.204 125.006z" fill="white"></path><path d="M25.475 126.202c-0.473 0-0.946-0.167-1.327-0.505-0.826-0.734-0.9-1.998-0.167-2.824l17.749-19.977c0.735-0.825 1.997-0.9 2.823-0.167 0.826 0.734 0.9 1.998 0.167 2.824l-17.749 19.977C26.575 125.975 26.026 126.202 25.475 126.202z" fill="white"></path><path d="M4.999 107.056c-0.473 0-0.946-0.167-1.327-0.505-0.826-0.734-0.9-1.998-0.167-2.824l17.75-19.977c0.734-0.825 1.997-0.9 2.823-0.167 0.826 0.734 0.9 1.998 0.167 2.824l-17.75 19.977C6.1 106.829 5.551 107.056 4.999 107.056z" fill="white"></path></g></g></g></svg></g></svg></g><g></g></svg></g></svg></g><defs><mask></mask></defs><mask><g id="SvgjsG1710"><svg viewBox="0 0 395.52 157.70654991109245" height="157.70654991109245" width="395.52"><g><svg viewBox="0 0 395.52 157.70654991109245" height="157.70654991109245" width="395.52"><g><svg viewBox="0 0 395.52 157.70654991109245" height="157.70654991109245" width="395.52"><g transform="matrix(1,0,0,1,0,81.16218793733967)"><svg viewBox="0 0 395.52 76.54436197375277" height="76.54436197375277" width="395.52"><g id="SvgjsG1709"><svg viewBox="0 0 395.52 76.54436197375277" height="76.54436197375277" width="395.52" id="SvgjsSvg1708"><g><svg viewBox="0 0 395.52 76.54436197375277" height="76.54436197375277" width="395.52"><g transform="matrix(1,0,0,1,0,0)"><svg width="395.52" viewBox="1.494679999999999 -20.558410000000002 246.674 47.738420000000005" height="76.54436197375277" data-palette-color="url(#1bdfb15d-7fb2-48c1-8ee3-836ea16cbee1)"><path d="M13.209 15.684l-11.714-2.412 6.964-33.83 11.714 2.411c3.624 0.746 6.495 2.123 8.614 4.132 2.119 2.008 3.518 4.417 4.2 7.225 0.682 2.802 0.703 5.76 0.061 8.875v0c-0.706 3.428-1.987 6.278-3.843 8.55-1.861 2.265-4.157 3.844-6.886 4.739-2.736 0.893-5.773 0.997-9.11 0.31zM28.709 1.191v0c0.523-2.54 0.52-4.892-0.007-7.056-0.534-2.166-1.575-3.986-3.123-5.462-1.554-1.477-3.618-2.48-6.19-3.01v0l-7.434-1.53-5.396 26.21 7.434 1.531c2.605 0.536 4.919 0.407 6.941-0.389 2.014-0.79 3.686-2.083 5.015-3.878 1.331-1.802 2.251-3.94 2.76-6.416zM41.305 16.774l18.881 2.749-0.561 3.849-23.205-3.379 4.977-34.179 22.77 3.315-0.561 3.85-18.445-2.686-1.613 11.073 16.041 2.336-0.526 3.612-16.041-2.336zM70.635 24.325l-4.353-0.393 3.103-34.4 14.342 1.294c1.514 0.137 2.873 0.577 4.077 1.321 1.205 0.738 2.228 1.677 3.07 2.817 0.842 1.134 1.462 2.378 1.862 3.733 0.4 1.355 0.539 2.709 0.417 4.064v0c-0.169 1.872-0.752 3.62-1.748 5.244-0.989 1.618-2.292 2.882-3.907 3.794-1.615 0.912-3.439 1.276-5.47 1.093v0l-10.279-0.927zM73.388-6.201l-1.289 14.292 10.039 0.905c1.195 0.108 2.263-0.121 3.204-0.685 0.948-0.564 1.724-1.374 2.328-2.43 0.597-1.051 0.954-2.223 1.071-3.518v0c0.122-1.355-0.06-2.599-0.547-3.735-0.48-1.134-1.16-2.053-2.041-2.754-0.881-0.695-1.889-1.094-3.025-1.197v0zM120.8 27.18l-23.624-0.854 1.247-34.517 4.367 0.158-1.107 30.63 19.258 0.696zM139.246 26.927v0c-2.433 0.052-4.649-0.387-6.65-1.317-2-0.93-3.738-2.213-5.214-3.849-1.482-1.642-2.633-3.501-3.451-5.577-0.825-2.069-1.261-4.207-1.308-6.413v0c-0.05-2.306 0.316-4.511 1.098-6.615 0.781-2.111 1.891-4.002 3.329-5.673 1.444-1.671 3.143-3.005 5.095-4.001 1.959-1.002 4.105-1.529 6.437-1.579v0c2.433-0.052 4.65 0.403 6.651 1.368 2.001 0.964 3.733 2.274 5.196 3.929 1.463 1.656 2.606 3.511 3.431 5.567 0.825 2.063 1.26 4.181 1.307 6.354v0c0.049 2.299-0.31 4.504-1.078 6.614-0.768 2.11-1.871 3.998-3.309 5.663-1.438 1.671-3.136 2.998-5.096 3.98-1.959 0.982-4.105 1.499-6.438 1.549zM127.042 9.676v0c0.038 1.753 0.361 3.44 0.969 5.06 0.602 1.627 1.433 3.063 2.494 4.307 1.067 1.237 2.338 2.214 3.813 2.929 1.476 0.715 3.107 1.053 4.893 1.015v0c1.846-0.04 3.491-0.465 4.934-1.276 1.443-0.805 2.66-1.868 3.652-3.19 0.992-1.322 1.74-2.798 2.246-4.429 0.498-1.631 0.73-3.273 0.694-4.926v0c-0.038-1.753-0.357-3.433-0.959-5.041-0.601-1.607-1.446-3.043-2.533-4.306-1.081-1.257-2.349-2.233-3.804-2.929-1.462-0.702-3.066-1.034-4.813-0.997v0c-1.853 0.04-3.501 0.459-4.944 1.257-1.443 0.791-2.661 1.848-3.652 3.169-0.992 1.315-1.747 2.782-2.266 4.4-0.519 1.618-0.76 3.27-0.724 4.957zM153.761-8.22l4.804-0.392 11.892 17.087 9.058-18.8 4.744-0.388-11.298 22.937 1.026 12.558-4.365 0.357-1.035-12.658zM196.269 18.571l18.912-2.527 0.515 3.856-23.243 3.106-4.576-34.236 22.807-3.048 0.516 3.856-18.476 2.469 1.482 11.092 16.067-2.148 0.484 3.618-16.067 2.147zM226.56 17.786l-4.292 0.821-6.485-33.926 14.527-2.777c1.493-0.285 2.921-0.236 4.284 0.148 1.362 0.378 2.604 0.999 3.726 1.864 1.121 0.858 2.06 1.883 2.818 3.076 0.757 1.192 1.264 2.456 1.519 3.792v0c0.298 1.558 0.287 3.098-0.034 4.618-0.321 1.514-0.922 2.864-1.801 4.051-0.878 1.193-1.998 2.119-3.358 2.779v0l10.705 11.424-4.882 0.933-10.07-10.71-8.987 1.718zM220.806-12.319l2.694 14.095 10.274-1.964c1.179-0.225 2.144-0.749 2.896-1.572 0.754-0.816 1.272-1.814 1.556-2.995 0.291-1.176 0.318-2.385 0.08-3.629v0c-0.244-1.277-0.756-2.394-1.537-3.351-0.772-0.952-1.682-1.66-2.727-2.126-1.045-0.459-2.127-0.581-3.247-0.367v0z" opacity="1" transform="matrix(1,0,0,1,0,0)" fill="black" class="wordmark-text-0" id="SvgjsPath1707"></path></svg></g></svg></g></svg></g></svg></g><g transform="matrix(1,0,0,1,160.2339903696868,0)"><svg viewBox="0 0 75.05201926062638 76.54436197375277" height="76.54436197375277" width="75.05201926062638"><g><svg xmlns="http://www.w3.org/2000/svg" xmlns:xlink="http://www.w3.org/1999/xlink" version="1.1" x="0" y="0" viewBox="3.000385484561234 1.7891987156131817 121.98719432093651 124.41280128438682" style="enable-background:new 0 0 128 128;" xml:space="preserve" height="76.54436197375277" width="75.05201926062638" class="icon-icon-0" data-fill-palette-color="accent" id="SvgjsSvg1706"><g fill="black"><g fill="black"><g fill="black"><path d="M48.869 91.497c-0.521 0-1.029-0.204-1.409-0.581L35.452 78.985c-0.525-0.522-0.72-1.291-0.505-1.999 2.9-9.567 6.664-19.119 11.188-28.39 4.518-9.295 10.141-20.868 17.715-28.924 0.002-0.002 0.005-0.004 0.007-0.007C80.841 1.777 108.117 0.996 122.86 2.125c0.989 0.076 1.773 0.865 1.843 1.854 1.03 14.741 0.117 41.969-17.568 58.708-7.957 7.554-19.698 13.133-29.132 17.616-9.319 4.489-18.932 8.228-28.561 11.109C49.254 91.469 49.061 91.497 48.869 91.497zM39.128 76.998l10.304 10.238c9.048-2.772 18.073-6.316 26.845-10.542 9.665-4.593 20.609-9.793 28.106-16.911 15.836-14.988 17.221-39.44 16.438-53.791C106.463 5.121 81.974 6.397 66.76 22.416c-7.155 7.613-12.63 18.879-17.028 27.932C45.48 59.059 41.916 68.019 39.128 76.998z" fill="black"></path><path d="M84.979 52.692c-2.854 0-5.709-1.08-7.882-3.239-2.109-2.096-3.271-4.884-3.271-7.85 0-2.966 1.162-5.754 3.271-7.85 4.348-4.319 11.419-4.318 15.765 0 2.11 2.096 3.272 4.884 3.272 7.85 0 2.965-1.162 5.753-3.271 7.849l0 0C90.689 51.613 87.834 52.692 84.979 52.692zM84.979 34.512c-1.834 0-3.667 0.693-5.063 2.08-1.348 1.339-2.09 3.119-2.09 5.012 0 1.893 0.742 3.672 2.091 5.012 2.792 2.774 7.335 2.773 10.125 0l0.001 0c1.348-1.339 2.091-3.12 2.091-5.012 0-1.893-0.743-3.673-2.091-5.012C88.647 35.205 86.813 34.512 84.979 34.512z" fill="black"></path><path d="M41.196 65.438c-0.053 0-0.106-0.002-0.161-0.006l-20.033-1.597c-0.606-0.048-1.157-0.37-1.498-0.874-0.341-0.504-0.434-1.136-0.252-1.716C19.921 59.106 26.676 40 57.653 27.522c0.785-0.318 1.688-0.104 2.248 0.535 0.561 0.637 0.657 1.559 0.242 2.299-0.254 0.453-0.659 0.772-1.119 0.925-23.995 9.699-32.433 23.21-35.009 28.78l17.338 1.382c1.101 0.088 1.922 1.052 1.835 2.153C43.104 64.644 42.229 65.438 41.196 65.438z" fill="black"></path><path d="M64.803 107.202c-0.396 0-0.787-0.117-1.122-0.344-0.502-0.34-0.822-0.89-0.871-1.495l-1.607-19.898c-0.089-1.101 0.731-2.066 1.832-2.155 1.106-0.095 2.065 0.732 2.154 1.833l1.392 17.22c5.583-2.542 19.177-10.893 28.95-34.682 0.123-0.447 0.401-0.854 0.818-1.132 0.069-0.046 0.16-0.098 0.234-0.135 0.743-0.372 1.643-0.245 2.254 0.322s0.807 1.452 0.492 2.223c-12.561 30.782-31.786 37.491-33.937 38.155C65.199 107.172 65.001 107.202 64.803 107.202z" fill="black"></path><path d="M119.474 40.137c-0.51 0-1.02-0.193-1.409-0.581L87.066 8.758c-0.784-0.779-0.788-2.045-0.01-2.829s2.046-0.787 2.828-0.009l30.998 30.798c0.784 0.779 0.788 2.045 0.01 2.829C120.502 39.94 119.987 40.137 119.474 40.137z" fill="black"></path></g><g fill="black"><path d="M6.204 125.006c-0.5 0-1.001-0.187-1.39-0.562-0.794-0.767-0.816-2.033-0.049-2.828l27.386-28.354c0.769-0.793 2.033-0.816 2.828-0.049 0.794 0.767 0.816 2.033 0.049 2.828L7.643 124.396C7.25 124.802 6.728 125.006 6.204 125.006z" fill="black"></path><path d="M25.475 126.202c-0.473 0-0.946-0.167-1.327-0.505-0.826-0.734-0.9-1.998-0.167-2.824l17.749-19.977c0.735-0.825 1.997-0.9 2.823-0.167 0.826 0.734 0.9 1.998 0.167 2.824l-17.749 19.977C26.575 125.975 26.026 126.202 25.475 126.202z" fill="black"></path><path d="M4.999 107.056c-0.473 0-0.946-0.167-1.327-0.505-0.826-0.734-0.9-1.998-0.167-2.824l17.75-19.977c0.734-0.825 1.997-0.9 2.823-0.167 0.826 0.734 0.9 1.998 0.167 2.824l-17.75 19.977C6.1 106.829 5.551 107.056 4.999 107.056z" fill="black"></path></g></g></g></svg></g></svg></g><g></g></svg></g></svg></g><defs><mask></mask></defs></svg><rect width="395.52" height="157.70654991109245" fill="black" stroke="none" visibility="hidden"></rect></g></mask></svg><rect width="395.52" height="157.70654991109245" fill="black" stroke="none" visibility="hidden"></rect></g></mask><linearGradient x1="0" x2="1" y1="0.578" y2="0.595" id="a60f6c1e-0b98-4dc1-abac-fc55abd6ef0c"><stop stop-color="#6ee2f5" offset="0"></stop><stop stop-color="#6454f0" offset="1"></stop></linearGradient><rect width="395.52" height="157.70654991109245" fill="#ffffff" mask="url(#8fcb5274-9a11-4a5f-b89b-a9ac54611d1b)" data-fill-palette-color="accent"></rect></svg><rect width="395.52" height="157.70654991109245" fill="none" stroke="none" visibility="hidden"></rect></g></svg></g></svg>